<?xml version="1.0" standalone="no"?><!DOCTYPE svg PUBLIC "-//W3C//DTD SVG 1.1//EN" "http://www.w3.org/Graphics/SVG/1.1/DTD/svg11.dtd"><svg t="1517208001142" class="icon" style="" viewBox="0 0 1024 1024" version="1.1" xmlns="http://www.w3.org/2000/svg" p-id="9710" xmlns:xlink="http://www.w3.org/1999/xlink" width="27" height="27"><defs><style type="text/css"></style></defs><path d="M872.802928 755.99406 872.864326 755.99406 872.864326 755.624646Z" p-id="9711" fill="#999999"></path><path d="M400.807037 542.518061c-0.588401-0.224104-1.233084-0.364297-1.876744-0.364297L197.800483 542.153764c-44.358277 0-80.713276 35.83516-81.231069 79.999009-0.026606 0.195451-0.026606 0.363274-0.026606 0.561795l0 189.938933c0 2.550079 0.432859 5.158487 1.176802 7.264451 6.688329 39.057551 40.33566 67.432809 80.080873 67.432809L398.92927 887.35076c0.588401 0 1.12052-0.11154 1.653663-0.336668 37.179784-2.863211 67.295686-30.312376 73.294306-66.283636 1.011027-2.7486 1.458211-5.499248 1.458211-8.131191l0-189.884698c0-0.197498 0-0.36532 0-0.534166C474.833007 580.541049 442.362478 545.94102 400.807037 542.518061M425.259962 627.142413l0 175.219697c0 19.346627-15.787568 35.051307-35.219129 35.051307L208.764186 837.413418c-0.335644-0.059352-0.715291-0.059352-1.066285 0l-5.872754 0c-19.390629 0-35.177174-15.70468-35.177174-35.051307L166.647973 627.142413c0-19.292392 15.786545-35.020608 35.177174-35.020608l188.214662 0C409.472394 592.121805 425.259962 607.850022 425.259962 627.142413" p-id="9712" fill="#999999"></path><path d="M892.595716 191.294814c-0.476861-41.625026-32.973996-76.227102-74.501808-79.646991-0.61603-0.223081-1.234107-0.363274-1.904373-0.363274L636.370077 111.284549c-44.556798 0-81.035618 36.114522-81.260745 80.556711l0 189.94098c0 2.636037 0.449231 5.341658 1.179872 7.262404 6.67298 39.046295 40.289612 67.421552 80.080873 67.421552l179.819458 0c0.588401 0 1.121544-0.11154 1.65264-0.322341 37.154201-2.873444 67.323315-30.325679 73.351612-66.300009 0.953721-2.691295 1.401929-5.426593 1.401929-8.118911l0-189.884698C892.595716 191.644785 892.595716 191.475939 892.595716 191.294814M842.516134 196.270129l0 175.206394c0 19.348674-15.785521 35.049261-35.160801 35.049261L640.349715 406.525784c-19.374256 0-35.160801-15.70161-35.160801-35.049261L605.188914 196.270129c0-19.303648 15.787568-35.034934 35.160801-35.034934l167.005618 0C826.730613 161.235195 842.516134 176.966481 842.516134 196.270129" p-id="9713" fill="#999999"></path><path d="M818.093908 542.518061c-0.61603-0.224104-1.234107-0.364297-1.904373-0.364297L636.370077 542.153764c-44.556798 0-81.035618 36.116569-81.260745 80.560804l0 189.938933c0 2.636037 0.449231 5.353938 1.179872 7.264451 6.67298 39.057551 40.289612 67.432809 80.080873 67.432809l179.819458 0c0.588401 0 1.121544-0.11154 1.65264-0.336668 37.154201-2.863211 67.323315-30.312376 73.351612-66.283636 0.953721-2.693342 1.401929-5.439896 1.401929-8.131191l0-189.884698c0-0.197498 0-0.36532 0-0.534166C892.118855 580.541049 859.62172 545.94102 818.093908 542.518061M842.516134 627.142413l0 175.219697c0 19.346627-15.785521 35.051307-35.160801 35.051307L640.349715 837.413418c-19.374256 0-35.160801-15.70468-35.160801-35.051307L605.188914 627.142413c0-19.292392 15.787568-34.991955 35.160801-34.991955l167.005618 0C826.730613 592.149435 842.516134 607.850022 842.516134 627.142413" p-id="9714" fill="#999999"></path><path d="M400.807037 111.646799c-0.588401-0.223081-1.233084-0.363274-1.876744-0.363274L197.800483 111.283526c-44.358277 0-80.713276 35.83516-81.231069 79.983659-0.026606 0.209778-0.026606 0.3776-0.026606 0.573051l0 189.94098c0 2.553149 0.432859 5.160533 1.176802 7.262404 6.688329 39.046295 40.33566 67.421552 80.080873 67.421552L398.92927 456.465173c0.588401 0 1.12052-0.11154 1.653663-0.322341 37.179784-2.873444 67.295686-30.325679 73.294306-66.300009 1.011027-2.803859 1.458211-5.454222 1.458211-8.118911l0-189.884698c0-0.195451 0-0.363274 0-0.545422C474.833007 149.669788 442.362478 115.067712 400.807037 111.646799M425.259962 196.270129l0 175.206394c0 19.348674-15.787568 35.049261-35.219129 35.049261L201.825147 406.525784c-19.390629 0-35.177174-15.70161-35.177174-35.049261L166.647973 196.270129c0-19.303648 15.786545-35.034934 35.177174-35.034934l188.214662 0C409.472394 161.235195 425.259962 176.966481 425.259962 196.270129" p-id="9715" fill="#999999"></path></svg>