<?xml version="1.0" standalone="no"?><!DOCTYPE svg PUBLIC "-//W3C//DTD SVG 1.1//EN" "http://www.w3.org/Graphics/SVG/1.1/DTD/svg11.dtd"><svg t="1517205162367" class="icon" style="" viewBox="0 0 1024 1024" version="1.1" xmlns="http://www.w3.org/2000/svg" p-id="8031" xmlns:xlink="http://www.w3.org/1999/xlink" width="25" height="25"><defs><style type="text/css"></style></defs><path d="M148.72323 442.945251c-38.0762 0-68.942185 29.879518-68.942185 66.737984 0 36.859489 30.867008 66.74003 68.942185 66.74003 38.077224 0 68.944232-29.879518 68.944232-66.74003C217.666438 472.825792 186.800453 442.945251 148.72323 442.945251zM355.554902 231.123938l551.549761 0c19.062148 0 34.472116-14.94948 34.472116-33.368992 0-18.421558-15.409968-33.368992-34.472116-33.368992L355.554902 164.385954c-19.028379 0-34.472116 14.948457-34.472116 33.368992C321.082786 216.174458 336.526523 231.123938 355.554902 231.123938zM148.72323 754.875586c-38.0762 0-68.942185 29.879518-68.942185 66.737984 0 36.858466 30.867008 66.737984 68.942185 66.737984 38.077224 0 68.944232-29.879518 68.944232-66.737984C217.666438 784.755104 186.800453 754.875586 148.72323 754.875586zM907.105686 476.314243 355.554902 476.314243c-19.028379 0-34.472116 14.94948-34.472116 33.368992 0 18.421558 15.443737 33.371038 34.472116 33.371038l551.549761 0c19.062148 0 34.472116-14.94948 34.472116-33.371038C941.577802 491.263723 926.167834 476.314243 907.105686 476.314243zM148.72323 131.014916c-38.0762 0-68.942185 29.879518-68.942185 66.74003 0 36.858466 30.867008 66.737984 68.942185 66.737984 38.077224 0 68.944232-29.879518 68.944232-66.737984C217.666438 160.894434 186.800453 131.014916 148.72323 131.014916zM907.105686 788.244578 355.554902 788.244578c-19.028379 0-34.472116 14.915711-34.472116 33.368992 0 18.453281 15.443737 33.368992 34.472116 33.368992l551.549761 0c19.062148 0 34.472116-14.915711 34.472116-33.368992C941.577802 803.161313 926.167834 788.244578 907.105686 788.244578z" p-id="8032" fill="#ffffff"></path></svg>